<?xml version="1.0" encoding="iso-8859-1"?>
<!-- Generator: Adobe Illustrator 19.0.0, SVG Export Plug-In . SVG Version: 6.00 Build 0)  -->
<svg xmlns="http://www.w3.org/2000/svg" xmlns:xlink="http://www.w3.org/1999/xlink" version="1.1" id="Capa_1" x="0px" y="0px" viewBox="0 0 455 455" style="enable-background:new 0 0 455 455;" xml:space="preserve" width="512" height="512">
<g>
	<path style="fill:#185F8D;" d="M359.75,0H95.25c-16.5,0-30,13.5-30,30v140l162.25,20l162.25-20V30C389.75,13.5,376.25,0,359.75,0z"/>
	<polygon style="fill:#FFCC75;" points="106,40 106,130 136,130 201,85 226,40  "/>
	<polygon style="fill:#FFCC75;" points="349.75,40 286,40 221,85 196,130 349.75,130  "/>
	<polygon style="fill:#FFFFFF;" points="226,40 136,130 196,130 286,40  "/>
	<path style="fill:#6DA8D6;" d="M65.25,170v255c0,16.5,13.5,30,30,30h264.5c16.5,0,30-13.5,30-30V170H65.25z"/>
	<rect x="287.75" y="210" style="fill:#F2484B;" width="62" height="30"/>
	<rect x="287.75" y="270" style="fill:#185F8D;" width="62" height="145"/>
	<rect x="196.5" y="270" style="fill:#185F8D;" width="61.25" height="57.5"/>
	<rect x="105.25" y="270" style="fill:#185F8D;" width="61.25" height="57.5"/>
	<rect x="196.5" y="357.5" style="fill:#185F8D;" width="61.25" height="57.5"/>
	<rect x="105.25" y="357.5" style="fill:#185F8D;" width="61.25" height="57.5"/>
</g>















</svg>
