<?xml version="1.0" encoding="iso-8859-1"?>
<!-- Generator: Adobe Illustrator 19.0.0, SVG Export Plug-In . SVG Version: 6.00 Build 0)  -->
<svg version="1.1" id="Layer_1" xmlns="http://www.w3.org/2000/svg" xmlns:xlink="http://www.w3.org/1999/xlink" x="0px" y="0px"
	 viewBox="0 0 512 512" style="enable-background:new 0 0 512 512;" xml:space="preserve">
<g>
	<path style="fill:#EDEDED;" d="M109.714,275.692c-4.661,0-8.44-3.778-8.44-8.44v-33.758c0-4.662,3.779-8.44,8.44-8.44
		c4.661,0,8.44,3.778,8.44,8.44v33.758C118.154,271.915,114.375,275.692,109.714,275.692z"/>
	<path style="fill:#EDEDED;" d="M154.725,275.692c-4.661,0-8.44-3.778-8.44-8.44v-33.758c0-4.662,3.779-8.44,8.44-8.44
		s8.44,3.778,8.44,8.44v33.758C163.165,271.915,159.386,275.692,154.725,275.692z"/>
	<path style="fill:#EDEDED;" d="M165.978,53.451c-55.933,0-101.275,25.19-101.275,56.264s45.342,56.264,101.275,56.264
		l11.253-11.253V64.703L165.978,53.451z"/>
</g>
<path style="fill:#88888F;" d="M165.978,53.451c-20.82,0-40.171,3.493-56.264,9.477v93.573c16.093,5.984,35.444,9.477,56.264,9.477
	l11.253-11.253V64.703L165.978,53.451z"/>
<path style="fill:#EFC27B;" d="M436.044,53.451H165.978v112.527l56.264,45.011h168.791v78.769c0,18.644-15.115,33.758-33.758,33.758
	c-18.644,0-33.758,15.115-33.758,33.758c0,18.644,15.115,33.758,33.758,33.758H503.56V120.967
	C503.56,83.679,473.332,53.451,436.044,53.451z"/>
<polygon style="fill:#797781;" points="402.286,278.505 346.022,278.505 357.275,199.736 402.286,199.736 "/>
<path style="fill:#ECB45C;" d="M436.044,53.451H267.252v157.538h123.781v78.769c0,18.644-15.115,33.758-33.758,33.758
	c-18.644,0-33.758,15.115-33.758,33.758c0,18.644,15.115,33.758,33.758,33.758H503.56V120.967
	C503.56,83.679,473.332,53.451,436.044,53.451z"/>
<path style="fill:#797781;" d="M492.308,154.725c-24.858,0-45.011,20.151-45.011,45.011v90.022c0,24.86,20.153,45.011,45.011,45.011
	h11.253V154.725H492.308z"/>
<path style="fill:#88888F;" d="M123.851,322.469c-0.043,0.344-0.071,0.691-0.071,1.048h16.879c0-0.356-0.029-0.703-0.072-1.048
	c14.596-3.722,25.391-16.954,25.391-32.711v-22.506H98.462v22.506C98.462,305.514,109.255,318.748,123.851,322.469z"/>
<g>
	<path style="fill:#2E2D31;" d="M436.044,45.011H165.978c-56.663,0-102.016,24.109-108.828,56.264H8.44
		c-4.661,0-8.44,3.778-8.44,8.44c0,4.662,3.779,8.44,8.44,8.44H57.15c6.691,31.586,50.577,55.409,105.839,56.241l53.981,43.185
		c1.497,1.197,3.356,1.85,5.272,1.85h125.07l-9.614,57.689c-0.407,2.447,0.281,4.95,1.885,6.843c1.603,1.894,3.959,2.984,6.44,2.984
		h36.571v2.813c0,13.96-11.357,25.319-25.319,25.319c-23.268,0-42.198,18.929-42.198,42.198c0,23.268,18.929,42.198,42.198,42.198
		h80.97c-4.108,28.59-28.755,50.637-58.465,50.637H199.736c-32.576,0-59.077-26.502-59.077-59.077v-59.927
		c19.238-3.919,33.758-20.971,33.758-41.348v-22.506c0-4.662-3.779-8.44-8.44-8.44h-2.813v-25.319c0-4.662-3.779-8.44-8.44-8.44
		s-8.44,3.778-8.44,8.44v25.318h-28.132v-25.319c0-4.662-3.779-8.44-8.44-8.44c-4.661,0-8.44,3.778-8.44,8.44v25.319h-2.813
		c-4.661,0-8.44,3.778-8.44,8.44v22.506c0,20.378,14.521,37.429,33.758,41.348v59.927c0,41.883,34.073,75.956,75.956,75.956H379.78
		c39.029,0,71.263-29.594,75.476-67.517h48.305c4.661,0,8.44-3.778,8.44-8.44V120.967C512,79.084,477.927,45.011,436.044,45.011z
		 M106.901,289.758v-14.066h50.637v14.066c0,13.96-11.357,25.319-25.319,25.319S106.901,303.718,106.901,289.758z M157.538,157.324
		c-14.216-0.697-27.622-3.119-39.385-6.859V68.964c11.762-3.738,25.169-6.162,39.385-6.859V157.324z M73.143,109.714
		c0-13.107,10.879-25.181,28.132-33.921v67.842C84.022,134.896,73.143,122.821,73.143,109.714z M355.984,270.066l8.44-50.637h18.17
		v50.637H355.984z M495.121,382.593H357.275c-13.961,0-25.319-11.359-25.319-25.319c0-13.96,11.357-25.319,25.319-25.319
		c23.268,0,42.198-18.929,42.198-42.198v-78.769c0-4.662-3.779-8.44-8.44-8.44h-33.758H225.202l-50.785-40.628V61.89h261.626
		c32.576,0,59.077,26.502,59.077,59.077V382.593z"/>
	<path style="fill:#2E2D31;" d="M312.264,157.538H256c-4.661,0-8.44,3.778-8.44,8.44s3.779,8.44,8.44,8.44h56.264
		c4.661,0,8.44-3.778,8.44-8.44S316.925,157.538,312.264,157.538z"/>
	<path style="fill:#2E2D31;" d="M312.264,123.78H256c-4.661,0-8.44,3.778-8.44,8.44c0,4.662,3.779,8.44,8.44,8.44h56.264
		c4.661,0,8.44-3.778,8.44-8.44C320.703,127.558,316.925,123.78,312.264,123.78z"/>
	<path style="fill:#2E2D31;" d="M312.264,90.022H256c-4.661,0-8.44,3.778-8.44,8.44s3.779,8.44,8.44,8.44h56.264
		c4.661,0,8.44-3.778,8.44-8.44S316.925,90.022,312.264,90.022z"/>
</g>
<g>
</g>
<g>
</g>
<g>
</g>
<g>
</g>
<g>
</g>
<g>
</g>
<g>
</g>
<g>
</g>
<g>
</g>
<g>
</g>
<g>
</g>
<g>
</g>
<g>
</g>
<g>
</g>
<g>
</g>
</svg>
